<?xml version="1.0" standalone="no"?>
<!DOCTYPE svg PUBLIC "-//W3C//DTD SVG 20010904//EN"
 "http://www.w3.org/TR/2001/REC-SVG-20010904/DTD/svg10.dtd">
<svg version="1.0" xmlns="http://www.w3.org/2000/svg"
 width="769.000000pt" height="310.000000pt" viewBox="0 0 769.000000 310.000000"
 preserveAspectRatio="xMidYMid meet">

<g transform="translate(0.000000,310.000000) scale(0.100000,-0.100000)"
fill="#000000" stroke="none">
<path d="M830 3079 c-405 -89 -683 -350 -788 -738 l-26 -96 -4 -603 c-4 -638
2 -780 38 -911 47 -168 139 -320 272 -447 147 -141 303 -221 519 -264 100 -20
124 -20 3009 -20 3152 0 2970 -3 3140 52 323 104 571 366 662 698 l23 85 0
715 0 715 -23 85 c-76 278 -264 511 -512 635 -101 51 -166 73 -285 96 -98 19
-171 19 -3020 18 -2810 -1 -2923 -2 -3005 -20z m1360 -1204 l0 -74 -157 -3
-158 -3 0 -110 0 -110 148 -3 147 -3 0 -74 0 -75 -150 0 -151 0 3 -170 3 -170
-87 0 -88 0 0 435 0 435 245 0 245 0 0 -75z m620 45 c0 -25 4 -30 25 -30 l25
0 0 -140 0 -140 145 0 145 0 0 170 0 170 95 0 95 0 0 -30 c0 -25 4 -30 25 -30
l25 0 0 -435 0 -435 -90 0 c-89 0 -90 0 -90 24 0 19 -6 25 -27 28 l-28 3 -3
163 -2 162 -145 0 -145 0 0 -190 0 -190 -90 0 c-89 0 -90 0 -90 25 0 21 -5 25
-30 25 l-30 0 0 440 0 440 95 0 95 0 0 -30z m1252 3 c2 -20 9 -29 24 -31 23
-3 34 -40 34 -114 l0 -38 -160 0 -160 0 0 -65 0 -65 120 0 120 0 0 -30 c0 -25
4 -30 24 -30 20 0 24 -6 30 -46 3 -26 6 -60 6 -75 l0 -29 -150 0 -150 0 0 -85
0 -85 129 0 130 0 3 -27 c2 -20 9 -29 24 -31 23 -3 34 -40 34 -114 l0 -38
-250 0 -250 0 0 25 c0 21 -5 25 -30 25 l-30 0 0 440 0 440 249 0 250 0 3 -27z
m370 0 c2 -20 9 -29 24 -31 31 -4 34 -35 34 -369 l0 -293 150 0 150 0 0 -30
c0 -25 4 -30 25 -30 24 0 25 -2 25 -75 l0 -75 -271 0 -271 0 4 25 c5 22 2 25
-23 25 l-29 0 0 440 0 440 89 0 90 0 3 -27z m969 -5 c71 -35 166 -140 185
-205 33 -108 8 -220 -65 -293 -59 -59 -118 -80 -243 -87 l-98 -6 0 -153 0
-154 -90 0 c-89 0 -90 0 -90 25 0 21 -5 25 -30 25 l-30 0 0 441 0 441 203 -4
c196 -3 204 -4 258 -30z m811 5 c2 -20 10 -29 28 -33 23 -5 25 -9 29 -77 l3
-73 -161 0 -161 0 0 -65 0 -65 120 0 120 0 0 -30 c0 -25 4 -30 24 -30 19 0 24
-6 30 -37 3 -21 6 -55 6 -75 l0 -38 -150 0 -150 0 0 -85 0 -85 129 0 130 0 3
-27 c2 -20 9 -29 24 -31 23 -3 34 -40 34 -114 l0 -38 -250 0 -250 0 0 25 c0
21 -5 25 -30 25 l-30 0 0 440 0 440 249 0 250 0 3 -27z m633 2 c59 -22 178
-139 197 -195 21 -62 16 -150 -13 -205 -22 -44 -85 -105 -121 -117 -9 -3 31
-70 115 -196 l127 -192 -100 0 c-95 0 -100 1 -116 25 -9 14 -22 25 -29 25 -8
0 -24 17 -36 38 -13 20 -53 84 -91 143 -67 104 -68 105 -103 101 l-35 -4 0
-164 0 -164 -95 0 c-95 0 -95 0 -95 25 0 20 -5 25 -25 25 l-25 0 0 441 0 441
198 -4 c157 -4 207 -9 247 -23z"/>
<path d="M5180 1640 l0 -100 30 0 c44 0 107 28 125 57 9 14 17 46 18 71 0 60
-17 72 -105 72 l-68 0 0 -100z"/>
<path d="M6640 1655 l0 -85 45 0 c83 0 125 39 125 116 0 42 -24 54 -111 54
l-59 0 0 -85z"/>
</g>
</svg>
